<svg xmlns="http://www.w3.org/2000/svg" viewBox="0 0 578.69 208.39"><defs><style>.cls-1{fill:#fff;}.cls-2{fill:#1a9f7f;}</style></defs><g id="Layer_2" data-name="Layer 2"><g id="Layer_1-2" data-name="Layer 1"><path class="cls-1" d="M53,208.24H48A1.24,1.24,0,0,1,46.77,207V95.14h40a14.11,14.11,0,0,0,11.11-5.42c13.27-17.06,1.29-36-15.05-36-5.34,0-52.27-.34-71.26-.48a4.12,4.12,0,0,0-4.15,4.14V207a1.24,1.24,0,0,1-1.25,1.24h-5A1.24,1.24,0,0,1,0,207V56.35A10.63,10.63,0,0,1,10.7,45.72c21.23.16,67.08.49,72.18.49,21.72,0,37.78,24.68,21.62,47.46A21.47,21.47,0,0,1,87,102.61H54.24V207A1.24,1.24,0,0,1,53,208.24Zm126.23.15L133.68,145a1.24,1.24,0,0,0-1.73-.29l-4,2.9a1.24,1.24,0,0,0-.28,1.74l37,51.6h-47.1l-33-52.17c39.32-1.62,71.63-33.41,72.69-72.25.75-27.21-13-52.41-37.79-67.08A69.48,69.48,0,0,0,84.1,0H0V7.47H82.88A66.93,66.93,0,0,1,149.8,76.29c-1,35.87-31.66,65.06-68.39,65.06H79a4.38,4.38,0,0,0-3.7,6.72l38.15,60.32Z" fill="#1a9f7f"/><rect class="cls-2" x="195.36" y="73.01" width="383.33" height="78.71"/><path class="cls-1" d="M234.36,92c10.2,0,17,5.06,17,14.46A12.85,12.85,0,0,1,243,119l9.22,17h-9.95l-7.75-15.38h-6.35v15.38h-9.22V92Zm-6.22,7.87V113h6.71c4.15,0,7-2.07,7-6.53s-3-6.59-7.26-6.59Z" fill="#1a9f7f"/><path class="cls-1" d="M261.36,92l10.07,18L281.5,92h10.62l-16,26.91v17h-9.4v-17L250.8,92Z" fill="#1a9f7f"/><path class="cls-1" d="M303.25,91.32h.36L325,135.94h-9.82l-3.54-7.75H295.19l-3.42,7.75h-9.83Zm5.55,30.28c-2-4.58-4-9.22-5.31-13.06-1.28,3-3.6,8.91-5.43,13.06Z" fill="#1a9f7f"/><path class="cls-1" d="M363.81,136.62,339.7,113.48l-2.87-2.5v25h-9.21V91.32H328l24,23.14,2.81,2.5V92h9.28v44.62Z" fill="#1a9f7f"/><path class="cls-1" d="M404.79,92c10.2,0,17,5.06,17,14.46A12.85,12.85,0,0,1,413.4,119l9.22,17h-9.95l-7.75-15.38h-6.35v15.38h-9.22V92Zm-6.22,7.87V113h6.71c4.15,0,7-2.07,7-6.53s-3-6.59-7.26-6.59Z" fill="#1a9f7f"/><path class="cls-1" d="M447.91,91.14a22.53,22.53,0,0,1,23,22.83c0,12.82-9.71,22.83-23,22.83s-23-10-23-22.83A22.53,22.53,0,0,1,447.91,91.14Zm0,37.05c7.93,0,13.54-6.35,13.54-14.22s-5.61-14.22-13.54-14.22-13.56,6.41-13.56,14.22S440,128.19,447.91,128.19Z" fill="#1a9f7f"/><path class="cls-1" d="M474.17,134.3v-9a28.84,28.84,0,0,0,11.05,3.18,15.79,15.79,0,0,0,3.91-.25c3.35-.49,5.31-1.77,5.31-3.9,0-2.94-2.63-4.46-8.67-6.66-7.69-2.81-12.21-6-12.21-13.67,0-7.81,6.47-12.82,15.93-12.82A30.23,30.23,0,0,1,501,93.34V102a22.5,22.5,0,0,0-10.75-2.69c-4.51,0-7.44,1.77-7.44,4.58,0,2.56,2.38,4.33,8.36,6.59,7.69,3,12.45,6.23,12.45,13.61,0,7.94-6,12.7-16.36,12.7A34.35,34.35,0,0,1,474.17,134.3Z" fill="#1a9f7f"/><path class="cls-1" d="M507.09,134.3v-9a28.84,28.84,0,0,0,11.05,3.18,15.71,15.71,0,0,0,3.9-.25c3.36-.49,5.31-1.77,5.31-3.9,0-2.94-2.62-4.46-8.66-6.66-7.7-2.81-12.21-6-12.21-13.67,0-7.81,6.47-12.82,15.93-12.82a30.18,30.18,0,0,1,11.47,2.2V102a22.43,22.43,0,0,0-10.74-2.69c-4.52,0-7.45,1.77-7.45,4.58,0,2.56,2.38,4.33,8.36,6.59,7.7,3,12.46,6.23,12.46,13.61,0,7.94-6,12.7-16.36,12.7A34.31,34.31,0,0,1,507.09,134.3Z" fill="#1a9f7f"/></g></g></svg>