<svg xmlns="http://www.w3.org/2000/svg" viewBox="0 0 306.53 222.1"><defs><style>.cls-1{fill:#fff;}.cls-2{fill:#96b462;}</style></defs><g id="Layer_2" data-name="Layer 2"><g id="Layer_1-2" data-name="Layer 1"><path class="cls-1" d="M143.69,145h-3.47a.86.86,0,0,1-.86-.87V66.25h27.88A9.81,9.81,0,0,0,175,62.47c9.24-11.88.89-25.09-10.48-25.09-3.72,0-36.4-.24-49.62-.34a2.89,2.89,0,0,0-2.9,2.89V144.14a.87.87,0,0,1-.87.87h-3.47a.86.86,0,0,1-.86-.87V39.24a7.39,7.39,0,0,1,7.44-7.4c14.79.11,46.72.34,50.27.34,15.13,0,26.31,17.18,15.06,33.05a15,15,0,0,1-12.22,6.22H144.56v72.69A.87.87,0,0,1,143.69,145Zm87.9.1L199.88,101a.87.87,0,0,0-1.21-.2l-2.82,2a.87.87,0,0,0-.2,1.21l25.81,35.93H188.65l-23-36.33c27.38-1.13,49.88-23.26,50.62-50.31.52-19-9-36.5-26.31-46.71A48.34,48.34,0,0,0,165.35,0H106.81V5.2H164.5a46.62,46.62,0,0,1,46.6,47.93c-.69,25-22,45.3-47.62,45.3H161.8a3,3,0,0,0-2.58,4.68l26.57,42Z"/><rect class="cls-2" y="159.16" width="306.53" height="62.94"/><path class="cls-1" d="M54.56,174.34c8.15,0,13.57,4,13.57,11.57a10.27,10.27,0,0,1-6.69,10l7.37,13.57h-8l-6.2-12.3H49.58v12.3H42.21V174.34Zm-5,6.3v10.49H55c3.32,0,5.61-1.66,5.61-5.22s-2.39-5.27-5.81-5.27Z"/><path class="cls-1" d="M76.15,174.34l8,14.4,8-14.4h8.5L88,195.87v13.61H80.44V195.87L67.7,174.34Z"/><path class="cls-1" d="M109.64,173.8h.29L127,209.48h-7.86l-2.83-6.19H103.19l-2.73,6.19H92.6ZM114.08,198c-1.61-3.66-3.17-7.37-4.25-10.44-1,2.44-2.88,7.12-4.34,10.44Z"/><path class="cls-1" d="M158.07,210l-19.28-18.5-2.29-2v20h-7.37V173.8h.29l19.23,18.5,2.25,2v-20h7.41V210Z"/><path class="cls-1" d="M190.84,174.34c8.15,0,13.57,4,13.57,11.57a10.27,10.27,0,0,1-6.69,10l7.37,13.57h-8l-6.2-12.3h-5.08v12.3h-7.37V174.34Zm-5,6.3v10.49h5.37c3.32,0,5.61-1.66,5.61-5.22s-2.39-5.27-5.8-5.27Z"/><path class="cls-1" d="M225.31,173.66a18.26,18.26,0,1,1-18.4,18.25A18,18,0,0,1,225.31,173.66Zm0,29.63c6.35,0,10.84-5.08,10.84-11.38s-4.49-11.37-10.84-11.37-10.83,5.13-10.83,11.37S219,203.29,225.31,203.29Z"/><path class="cls-1" d="M246.32,208.17v-7.23a22.91,22.91,0,0,0,8.83,2.54,13,13,0,0,0,3.13-.19c2.68-.39,4.24-1.42,4.24-3.13,0-2.34-2.1-3.56-6.93-5.32-6.15-2.24-9.76-4.83-9.76-10.93,0-6.25,5.17-10.25,12.74-10.25a24,24,0,0,1,9.17,1.76v6.93a17.84,17.84,0,0,0-8.58-2.15c-3.62,0-6,1.41-6,3.66,0,2,1.9,3.46,6.69,5.27,6.15,2.39,9.95,5,9.95,10.88,0,6.35-4.78,10.16-13.08,10.16A27.46,27.46,0,0,1,246.32,208.17Z"/><path class="cls-1" d="M272.64,208.17v-7.23a22.91,22.91,0,0,0,8.83,2.54,13,13,0,0,0,3.13-.19c2.68-.39,4.25-1.42,4.25-3.13,0-2.34-2.1-3.56-6.94-5.32-6.15-2.24-9.76-4.83-9.76-10.93,0-6.25,5.17-10.25,12.74-10.25a24.13,24.13,0,0,1,9.18,1.76v6.93a17.88,17.88,0,0,0-8.59-2.15c-3.62,0-6,1.41-6,3.66,0,2,1.91,3.46,6.69,5.27,6.15,2.39,10,5,10,10.88,0,6.35-4.79,10.16-13.09,10.16A27.46,27.46,0,0,1,272.64,208.17Z"/></g></g></svg>