<svg xmlns="http://www.w3.org/2000/svg" viewBox="0 0 90.35 12.99"><defs><style>.cls-1{fill:#fff;}</style></defs><g id="Layer_2" data-name="Layer 2"><g id="Layer_1-2" data-name="Layer 1"><path class="cls-1" d="M4.39.24c2.9,0,4.83,1.44,4.83,4.12A3.66,3.66,0,0,1,6.84,7.92l2.62,4.83H6.63L4.43,8.37H2.62v4.38H0V.24ZM2.62,2.48V6.22H4.53a1.76,1.76,0,0,0,2-1.86A1.82,1.82,0,0,0,4.46,2.48Z"/><path class="cls-1" d="M12.07.24l2.87,5.13L17.8.24h3L16.28,7.9v4.85H13.6V7.9L9.07.24Z"/><path class="cls-1" d="M24,.05h.1l6.08,12.7h-2.8l-1-2.21H21.7l-1,2.21H17.93Zm1.58,8.61C25,7.36,24.44,6,24.06,5c-.37.87-1,2.53-1.55,3.71Z"/><path class="cls-1" d="M41.22,12.94,34.36,6.35l-.82-.71v7.11H30.92V.05H31l6.84,6.58.8.71V.24h2.64v12.7Z"/><path class="cls-1" d="M52.88.24c2.9,0,4.82,1.44,4.82,4.12a3.66,3.66,0,0,1-2.37,3.56L58,12.75H55.12L52.91,8.37h-1.8v4.38H48.48V.24ZM51.11,2.48V6.22H53a1.75,1.75,0,0,0,2-1.86A1.82,1.82,0,0,0,53,2.48Z"/><path class="cls-1" d="M65.14,0a6.41,6.41,0,0,1,6.55,6.49,6.55,6.55,0,0,1-13.1,0A6.42,6.42,0,0,1,65.14,0Zm0,10.54a3.88,3.88,0,0,0,3.86-4,3.86,3.86,0,1,0-7.71,0A3.87,3.87,0,0,0,65.14,10.54Z"/><path class="cls-1" d="M72.61,12.28V9.71a8.26,8.26,0,0,0,3.15.9,4.39,4.39,0,0,0,1.11-.07c.95-.14,1.51-.5,1.51-1.11,0-.84-.75-1.27-2.47-1.89-2.19-.8-3.47-1.72-3.47-3.89S74.28,0,77,0a8.77,8.77,0,0,1,3.27.62V3.09a6.46,6.46,0,0,0-3.06-.76c-1.28,0-2.12.5-2.12,1.3s.68,1.23,2.38,1.87C79.63,6.35,81,7.28,81,9.38c0,2.25-1.7,3.61-4.65,3.61A9.81,9.81,0,0,1,72.61,12.28Z"/><path class="cls-1" d="M82,12.28V9.71a8.21,8.21,0,0,0,3.14.9,4.39,4.39,0,0,0,1.11-.07c1-.14,1.51-.5,1.51-1.11,0-.84-.74-1.27-2.46-1.89-2.19-.8-3.48-1.72-3.48-3.89S83.64,0,86.34,0A8.71,8.71,0,0,1,89.6.62V3.09a6.46,6.46,0,0,0-3.06-.76c-1.28,0-2.11.5-2.11,1.3S85.1,4.86,86.8,5.5c2.19.85,3.55,1.78,3.55,3.88,0,2.25-1.7,3.61-4.66,3.61A9.72,9.72,0,0,1,82,12.28Z"/></g></g></svg>