<svg xmlns="http://www.w3.org/2000/svg" viewBox="0 0 72.01 83.72"><defs><style>.cls-1{fill:#1a9f7f;}</style></defs><g id="Layer_2" data-name="Layer 2"><g id="Layer_1-2" data-name="Layer 1"><path class="cls-1" d="M21.29,83.66h-2a.5.5,0,0,1-.5-.5V38.22H34.88A5.64,5.64,0,0,0,39.34,36c5.33-6.85.52-14.48-6-14.48-2.15,0-21-.13-28.63-.19A1.67,1.67,0,0,0,3,23V83.16a.5.5,0,0,1-.5.5H.5a.5.5,0,0,1-.5-.5V22.64a4.27,4.27,0,0,1,4.3-4.27c8.53.06,27,.19,29,.19,8.72,0,15.18,9.92,8.68,19.07a8.6,8.6,0,0,1-7,3.59H21.79V83.16A.5.5,0,0,1,21.29,83.66ZM72,83.72,53.71,58.24a.51.51,0,0,0-.7-.11l-1.62,1.16a.5.5,0,0,0-.12.7L66.16,80.72H47.23L34,59.76c15.8-.65,28.78-13.42,29.21-29A30.07,30.07,0,0,0,48,3.78,28,28,0,0,0,33.79,0H0V3H33.3A26.88,26.88,0,0,1,60.18,30.65c-.39,14.41-12.72,26.14-27.47,26.14h-1a1.76,1.76,0,0,0-1.49,2.7L45.58,83.72Z"/></g></g></svg>