<svg xmlns="http://www.w3.org/2000/svg" viewBox="0 0 343.2 620.49"><defs><style>.cls-1{fill:#586b7c;}</style></defs><g id="Layer_2" data-name="Layer 2"><g id="Layer_1-2" data-name="Layer 1"><path class="cls-1" d="M80.64,0c45.5,0,75.74,22.61,75.74,64.57,0,28.6-16.08,47.4-37.33,55.84l41.14,75.74H115.78L81.18,127.5H52.85v68.65H11.71V0ZM52.85,35.14V93.72h30c18.52,0,31.33-9.27,31.33-29.15,0-19.62-13.35-29.43-32.42-29.43Z"/><path class="cls-1" d="M184.17,196.15V0H310.3V35.14H226.12V79.82H297.5V113.6H226.12V161h88.27v35.14Z"/><path class="cls-1" d="M2.72,401V360.64c13.63,7.09,31.61,13.08,49.31,14.17a71.54,71.54,0,0,0,17.44-1.09c15-2.18,23.7-7.9,23.7-17.44,0-13.07-11.71-19.88-38.68-29.69C20.16,314.06,0,299.62,0,265.57c0-34.88,28.88-57.22,71.1-57.22,19.62,0,39,4.36,51.22,9.81v38.69c-11.44-6.81-30-12-47.95-12-20.16,0-33.23,7.9-33.23,20.43,0,11.44,10.62,19.35,37.32,29.43C112.79,308.06,134,322.5,134,355.47c0,35.41-26.7,56.66-73,56.66C38.69,412.13,16.89,407.23,2.72,401Z"/><path class="cls-1" d="M322.56,336.94c0,45.77-30.24,75.19-82,75.19-51.49,0-82-29.42-82-75.19V212.17h42V332.86c0,25.6,14.44,40.86,40,40.86,25.89,0,40.05-15.26,40.05-40.86V212.17h42Z"/><path class="cls-1" d="M56.38,519.14l-9.52-9V620.49H10V421.34h.76l86,94.26,86-94.26h.75V620.49H146.61V510.15l-9.52,9c-13.29,15.8-26.82,31.6-40.35,47.13C83.2,550.74,69.92,534.94,56.38,519.14Z"/><path class="cls-1" d="M213,620.49V424.34H339.11v35.14H254.93v44.68h71.38v33.78H254.93v47.4H343.2v35.15Z"/></g></g></svg>