<svg xmlns="http://www.w3.org/2000/svg" viewBox="0 0 1082.64 1303.41"><defs><style>.cls-1{fill:#231f20;opacity:0.5;}.cls-2{fill:#fff;stroke:#a6b6bf;stroke-miterlimit:10;}.cls-3{fill:#a6b6bf;}</style></defs><g id="Layer_2" data-name="Layer 2"><g id="Layer_1-2" data-name="Layer 1"><rect class="cls-1" x="99.16" y="84.58" width="901.24" height="1157.41" transform="translate(106.48 -75.42) rotate(8.69)"/><rect class="cls-2" x="82.8" y="61.99" width="901.24" height="1157.41" transform="translate(102.88 -73.21) rotate(8.69)"/><rect class="cls-3" x="221.61" y="158.8" width="305.07" height="30.27" transform="translate(30.56 -54.51) rotate(8.69)"/><rect class="cls-3" x="213.52" y="211.75" width="305.07" height="30.27" transform="translate(38.47 -52.68) rotate(8.69)"/><rect class="cls-3" x="194.02" y="356.67" width="760.96" height="30.27" transform="translate(62.74 -82.5) rotate(8.69)"/><rect class="cls-3" x="186.12" y="408.43" width="760.96" height="30.27" transform="translate(70.47 -80.71) rotate(8.69)"/><rect class="cls-3" x="178.21" y="460.18" width="760.96" height="30.27" transform="translate(78.2 -78.93) rotate(8.69)"/><rect class="cls-3" x="165.1" y="545.99" width="760.96" height="30.27" transform="translate(91 -75.96) rotate(8.69)"/><rect class="cls-3" x="157.19" y="597.74" width="760.96" height="30.27" transform="translate(98.73 -74.17) rotate(8.69)"/><rect class="cls-3" x="149.29" y="649.5" width="760.96" height="30.27" transform="translate(106.46 -72.39) rotate(8.69)"/><rect class="cls-3" x="137.22" y="728.49" width="760.96" height="30.27" transform="translate(118.25 -69.66) rotate(8.69)"/><rect class="cls-3" x="129.31" y="780.25" width="760.96" height="30.27" transform="translate(125.97 -67.87) rotate(8.69)"/><rect class="cls-3" x="121.4" y="832" width="760.96" height="30.27" transform="translate(133.7 -66.08) rotate(8.69)"/><rect class="cls-3" x="109.33" y="911" width="760.96" height="30.27" transform="translate(145.49 -63.35) rotate(8.69)"/><rect class="cls-3" x="101.43" y="962.75" width="760.96" height="30.27" transform="translate(153.22 -61.56) rotate(8.69)"/><rect class="cls-3" x="93.52" y="1014.51" width="760.96" height="30.27" transform="translate(160.94 -59.78) rotate(8.69)"/></g></g></svg>